<?xml version="1.0" encoding="UTF-8" standalone="no"?>
<!-- Created with Inkscape (http://www.inkscape.org/) -->

<svg
   xmlns:dc="http://purl.org/dc/elements/1.1/"
   xmlns:cc="http://creativecommons.org/ns#"
   xmlns:rdf="http://www.w3.org/1999/02/22-rdf-syntax-ns#"
   xmlns:svg="http://www.w3.org/2000/svg"
   xmlns="http://www.w3.org/2000/svg"
   xmlns:sodipodi="http://sodipodi.sourceforge.net/DTD/sodipodi-0.dtd"
   xmlns:inkscape="http://www.inkscape.org/namespaces/inkscape"
   version="1.1"
   id="svg815"
   width="127.27184"
   height="115.84125"
   viewBox="0 0 127.27184 115.84125"
   sodipodi:docname="who.svg"
   inkscape:version="0.92.2 (5c3e80d, 2017-08-06)">
  <metadata
     id="metadata821">
    <rdf:RDF>
      <cc:Work
         rdf:about="">
        <dc:format>image/svg+xml</dc:format>
        <dc:type
           rdf:resource="http://purl.org/dc/dcmitype/StillImage" />
        <dc:title></dc:title>
      </cc:Work>
    </rdf:RDF>
  </metadata>
  <defs
     id="defs819" />
  <sodipodi:namedview
     pagecolor="#ffffff"
     bordercolor="#666666"
     borderopacity="1"
     objecttolerance="10"
     gridtolerance="10"
     guidetolerance="10"
     inkscape:pageopacity="0"
     inkscape:pageshadow="2"
     inkscape:window-width="1854"
     inkscape:window-height="1057"
     id="namedview817"
     showgrid="false"
     inkscape:zoom="5.2352941"
     inkscape:cx="56.402272"
     inkscape:cy="57.543171"
     inkscape:window-x="58"
     inkscape:window-y="-8"
     inkscape:window-maximized="1"
     inkscape:current-layer="svg815" />
  <path
     style="fill:#ffffff"
     d="m 41.065193,114.70685 c -2.945836,-1.62527 -7.5,-6.04723 -7.5,-7.28228 0,-0.5898 -0.970968,-1.67875 -2.157706,-2.41988 -2.009255,-1.2548 -1.971954,-1.03054 0.542153,3.25946 1.484924,2.53383 2.42447,4.60696 2.087882,4.60696 -0.336588,0 -2.527169,-1.31769 -4.867957,-2.92819 C 23.414107,105.98306 14.320231,96.009987 10.880474,89.885637 8.2459172,85.194907 7.8124562,84.873077 4.1281022,84.872127 l -3.93709097,-0.001 2.78901897,-2.91111 c 2.686473,-2.80407 2.748504,-3.10002 1.687091,-8.04922 C 3.0879482,66.547353 3.3086722,52.276158 5.1086092,45.365733 7.9281452,34.540804 12.368569,26.985082 21.022314,18.287344 30.338988,8.9233072 39.088237,4.0035592 51.227452,1.3028402 c 20.481819,-4.556772 43.954167,3.101348 57.863408,18.8785928 9.67401,10.973226 16.13114,29.202825 15.20105,42.915222 -0.4011,5.913496 -0.23103,6.797005 1.40855,7.317388 2.53057,0.803173 2.34315,1.863064 -0.60881,3.442904 -1.37891,0.73797 -2.98861,2.9148 -3.63742,4.91898 -1.97802,6.11002 -6.48915,14.35605 -10.8283,19.793333 -4.0504,5.07547 -15.864541,14.83138 -16.812471,13.88345 -0.26202,-0.26202 0.51163,-2.07507 1.71922,-4.029 1.2076,-1.95393 1.71457,-3.5526 1.12661,-3.5526 -0.58795,0 -2.1615,1.73062 -3.49678,3.84583 -5.90927,9.3609 -20.114524,9.43897 -25.405804,0.13962 -2.263962,-3.97888 -5.627502,-3.9768 -7.686438,0.005 -2.871761,5.55337 -13.57031,8.84402 -19.005074,5.84555 z m 13.520016,-2.34609 c 3.059774,-1.58227 5.613434,-5.18865 4.478911,-6.3253 -1.043603,-1.04555 -17.741901,-1.41352 -20.305634,-0.44746 l -2.306707,0.86921 2.194824,2.79027 c 3.693448,4.69546 10.360643,5.99776 15.938606,3.11328 z m 31,0 c 3.05977,-1.58227 5.61343,-5.18865 4.47891,-6.3253 -1.04361,-1.04555 -17.7419,-1.41352 -20.305633,-0.44746 l -2.306707,0.86921 2.194824,2.79027 c 3.693448,4.69546 10.360639,5.99776 15.938606,3.11328 z m -19.928061,-9.05483 c 14.524424,0.11251 26.858041,0.38131 27.408041,0.59732 1.73272,0.68055 5.19863,-1.85491 7.185231,-5.2563 2.47719,-4.241363 6.70056,-14.723383 6.15293,-15.271013 -0.23281,-0.23282 -3.10414,0.32453 -6.38073,1.23855 -9.606721,2.67984 -24.064441,2.186 -34.338023,-1.1729 -10.667638,-3.48774 -21.230054,-8.30042 -28.689346,-13.072069 l -5.854373,-3.744997 -1.534877,2.373295 c -0.844183,1.305312 -3.466295,4.463761 -5.826915,7.018771 l -4.292038,4.64547 3.576561,8.85453 c 3.887417,9.624113 4.81206,11.127233 8.338741,13.555613 1.649566,1.13585 3.147619,1.37687 5.091955,0.81924 1.515139,-0.43454 14.638418,-0.69801 29.162843,-0.58551 z M 39.964897,100.1058 c -0.605163,-0.40408 -1.653476,-1.78452 -2.329585,-3.06765 -1.16388,-2.208833 -1.328906,-2.242823 -3.101492,-0.638653 -1.76607,1.598273 -2.073347,1.570013 -5.420415,-0.49859 -4.229031,-2.61369 -4.698558,-4.53533 -0.87358,-3.57533 2.442743,0.61309 2.551117,0.52182 1.25,-1.05278 -1.299042,-1.57209 -1.182202,-1.67802 1.325368,-1.20156 1.5125,0.28739 2.75,0.24089 2.75,-0.10334 0,-0.34423 2.636134,-0.75651 5.858076,-0.91619 5.107056,-0.2531 6.26088,0.0486 9,2.35343 2.873466,2.41786 4.494974,5.42023 2.141924,3.96597 -0.55,-0.33992 -1,-0.14148 -1,0.44098 0,3.325263 -6.617907,6.285103 -9.600296,4.293713 z m 40.171725,-0.80612 c -0.86429,-0.86428 -1.57143,-2.26243 -1.57143,-3.106993 0,-0.96447 -0.566472,-1.31818 -1.523138,-0.95107 -2.804034,1.076 0.321613,-3.21494 3.562728,-4.89098 3.692287,-1.90936 12.960407,-2.11946 12.960407,-0.29381 0,0.46881 1.19899,0.55146 2.66442,0.18366 2.23952,-0.56209 2.55947,-0.39522 2.0063,1.04633 -0.53289,1.38868 -0.2562,1.5875 1.45388,1.04474 3.218631,-1.02155 1.849161,1.65076 -1.99714,3.89712 -3.07655,1.796803 -3.29455,1.801193 -5.16973,0.10418 -1.12431,-1.01749 -1.95773,-1.28004 -1.95773,-0.61674 0,2.019303 -3.91039,5.154993 -6.42857,5.154993 -1.33572,0 -3.135717,-0.70714 -3.999997,-1.57143 z"
     id="path4514"
     inkscape:connector-curvature="0" />
</svg>
